<?xml version="1.0" encoding="iso-8859-1"?>
<!-- Generator: Adobe Illustrator 18.1.1, SVG Export Plug-In . SVG Version: 6.00 Build 0)  -->
<svg version="1.1" id="Capa_1" xmlns="http://www.w3.org/2000/svg" xmlns:xlink="http://www.w3.org/1999/xlink" x="0px" y="0px"
	 viewBox="0 0 456.556 456.556" style="enable-background:new 0 0 456.556 456.556;" xml:space="preserve">
<path d="M119.992,456.556c-7.417,0-13.428-6.015-13.428-13.428v-429.7C106.564,6.015,112.576,0,119.992,0h216.57
	c4.973,0,9.536,2.749,11.865,7.141c2.329,4.392,2.039,9.714-0.752,13.827l-63,92.843v4.637l62.997,92.836
	c2.794,4.112,3.084,9.435,0.755,13.827c-2.329,4.392-6.892,7.141-11.865,7.141H191.959c-7.417,0-13.428-6.015-13.428-13.428
	c0-7.413,6.011-13.428,13.428-13.428h119.262l-51.083-75.281c-1.511-2.224-2.318-4.854-2.318-7.539v-12.89
	c0-2.686,0.808-5.315,2.315-7.539l51.09-75.288H133.421v416.272C133.421,450.541,127.409,456.556,119.992,456.556z"/>
<g>
</g>
<g>
</g>
<g>
</g>
<g>
</g>
<g>
</g>
<g>
</g>
<g>
</g>
<g>
</g>
<g>
</g>
<g>
</g>
<g>
</g>
<g>
</g>
<g>
</g>
<g>
</g>
<g>
</g>
</svg>
